<?xml version="1.0" standalone="no"?>
<!DOCTYPE svg PUBLIC "-//W3C//DTD SVG 20010904//EN"
 "http://www.w3.org/TR/2001/REC-SVG-20010904/DTD/svg10.dtd">
<svg version="1.0" xmlns="http://www.w3.org/2000/svg"
 width="256.000000pt" height="256.000000pt" viewBox="0 0 256.000000 256.000000"
 preserveAspectRatio="xMidYMid meet">

<g transform="translate(0.000000,256.000000) scale(0.100000,-0.100000)"
fill="#000000" stroke="none">
<path fill="#e31337" d="M374 2380 c-130 -74 -249 -279 -312 -535 -51 -203 -57 -267 -57 -560
0 -247 3 -294 22 -401 68 -365 197 -619 355 -698 69 -34 169 -36 231 -5 179
91 315 373 374 774 23 157 22 512 -1 665 -32 205 -70 345 -131 477 -71 151
-146 243 -237 289 -72 36 -175 34 -244 -6z"/>
<path fill="#e31337" d="M680 2405 c0 -2 20 -13 45 -24 51 -23 134 -97 176 -158 102 -147 195
-436 214 -663 3 -41 8 -99 11 -127 l5 -53 195 0 194 0 0 74 c0 129 -51 395
-106 548 -65 181 -173 332 -276 384 -45 23 -55 24 -253 24 -113 0 -205 -2
-205 -5z"/>
<path fill="#e31337" d="M1200 2406 c0 -2 25 -16 55 -30 140 -69 267 -284 337 -571 93 -383
68 -899 -59 -1235 -69 -184 -174 -324 -281 -377 l-57 -28 207 -3 c203 -2 209
-2 256 22 172 87 312 381 367 771 23 159 24 497 2 650 -33 229 -94 431 -170
567 -49 87 -138 183 -198 214 -47 23 -56 24 -254 24 -113 0 -205 -2 -205 -4z"/>
<path fill="#e31337" d="M1720 2406 c0 -2 25 -16 55 -30 200 -99 357 -472 387 -924 40 -582
-131 -1132 -390 -1259 l-57 -28 207 -3 c203 -2 209 -2 255 22 122 61 239 244
307 477 61 212 71 299 71 624 0 325 -10 412 -71 624 -68 232 -185 416 -306
477 -45 23 -56 24 -253 24 -113 0 -205 -2 -205 -4z"/>
<path fill="#e31337" d="M1121 1078 c-27 -300 -108 -568 -220 -731 -42 -61 -125 -135 -179
-160 l-47 -22 207 -3 c203 -2 209 -2 256 22 103 52 211 203 276 384 56 158
106 419 106 558 l0 84 -193 0 -194 0 -12 -132z"/>
</g>
</svg>
