<svg xmlns="http://www.w3.org/2000/svg" width="88" height="20" viewBox="0 0 88 20">
  <g fill="none">
    <g fill="#E31337">
      <path d="M17.1570136,11.2909412 C17.2362537,11.2909412 17.2857404,11.3738382 17.2460439,11.440079 L12.1460062,19.9504153 C12.1276154,19.9811037 12.0936867,20 12.0569759,20 L8.93938704,20 C8.86014703,20 8.81066029,19.917103 8.85035678,19.8508622 L13.9503945,11.3405259 C13.9687853,11.3098375 14.002714,11.2909412 14.0394248,11.2909412 L17.1570136,11.2909412 Z M14.1248422,8.85159333 C14.0881315,8.85159333 14.0542028,8.83269703 14.035812,8.80200861 L8.85035678,0.149137772 C8.81066029,0.0828970011 8.86014703,0 8.93938704,0 L12.0569759,0 C12.0936867,0 12.1276154,0.0188963025 12.1460062,0.0495847261 L17.3314614,8.70245556 C17.3711579,8.76869633 17.3216711,8.85159333 17.2424311,8.85159333 L14.1248422,8.85159333 Z"/>
      <path d="M14.7412807.149089684C14.701511.0828488661 14.7511562 0 14.8306192 0L17.9526492 0C17.9894958 0 18.0235468.0189172826 18.0419878.0496328147L23.9861462 9.95027157C24.0046179 9.98103833 24.0046179 10.0189617 23.9861462 10.0497284L18.0419878 19.9503672C18.0235468 19.9810827 17.9894958 20 17.9526492 20L14.8306192 20C14.7511562 20 14.701511 19.9171511 14.7412807 19.8509103L20.6555831 10 14.7412807.149089684zM12.2040236 9.9499034C12.2228123 9.98071074 12.2229068 10.0187957 12.2042713 10.0496882L6.2318428 19.9503269C6.19199955 20.016376 6.09249179 20.0166024 6.05232103 19.9507353L.0141582124 10.0500966C-.00463044768 10.0192893-.00472500023 9.98120431.0139104793 9.95031182L5.98633902.0496730797C6.02618227-.0163760452 6.12569003-.0166024346 6.16586079.049264651L12.2040236 9.9499034z"/>
    </g>
    <path fill="#FFF" d="M39.083237,4 L42.4219653,4 L42.4219653,16 L39.083237,16 L39.083237,11.32 L34.3387283,11.32 L34.3387283,16 L31,16 L31,4 L34.3387283,4 L34.3387283,8.33714286 L39.083237,8.33714286 L39.083237,4 Z M49.4508671,4 L52.7456647,4 L52.7456647,16 L49.4508671,16 L49.4508671,4 Z M63.5102685,16 L58.6763006,4.15428571 L58.6763006,4 L62.297382,4 L65.3208092,12.1428571 L68.3442365,4 L71.9653179,4 L71.9653179,4.15428571 L67.13135,16 L63.5102685,16 Z M81.132051,13.0514286 L88,13.0514286 L88,16 L77.7861272,16 L77.7861272,4 L87.8767291,4 L87.8767291,6.94857143 L81.132051,6.94857143 L81.132051,8.61142857 L85.4113115,8.61142857 L85.4113115,11.3542857 L81.132051,11.3542857 L81.132051,13.0514286 Z"/>
  </g>
</svg>
